<svg width="19" height="19" viewBox="0 0 19 19" fill="none" xmlns="http://www.w3.org/2000/svg">
<g opacity="0.5">
<path fill-rule="evenodd" clip-rule="evenodd" d="M15.6897 5.58243C15.9886 5.87198 15.9962 6.34901 15.7066 6.64791L9.86697 12.6759C9.57742 12.9748 9.10039 12.9824 8.80149 12.6929C8.50259 12.4033 8.49502 11.9263 8.78458 11.6274L14.6242 5.59934C14.9138 5.30044 15.3908 5.29287 15.6897 5.58243Z" fill="black"/>
<path fill-rule="evenodd" clip-rule="evenodd" d="M9.86654 12.6762C9.57684 12.975 9.0998 12.9823 8.80105 12.6926L2.58463 6.66456C2.28588 6.37486 2.27854 5.89783 2.56824 5.59907C2.85794 5.30032 3.33498 5.29298 3.63373 5.58268L9.85015 11.6107C10.1489 11.9004 10.1562 12.3775 9.86654 12.6762Z" fill="black"/>
</g>
</svg>
